solid OpenSCAD_Model
  facet normal -1 0 0
    outer loop
      vertex 0 0 0
      vertex 0 121.92 2
      vertex 0 121.92 0
    endloop
  endfacet
  facet normal -1 -0 0
    outer loop
      vertex 0 121.92 2
      vertex 0 0 0
      vertex 0 0 2
    endloop
  endfacet
  facet normal -0 0 1
    outer loop
      vertex 9.75528 120.375 2
      vertex 10 0 2
      vertex 10 121.92 2
    endloop
  endfacet
  facet normal 0 0 1
    outer loop
      vertex 9.75528 120.375 2
      vertex 9.75528 1.54508 2
      vertex 10 0 2
    endloop
  endfacet
  facet normal -0 0 1
    outer loop
      vertex 9.04508 118.981 2
      vertex 9.75528 1.54508 2
      vertex 9.75528 120.375 2
    endloop
  endfacet
  facet normal 0 0 1
    outer loop
      vertex 9.04508 118.981 2
      vertex 9.04508 2.93893 2
      vertex 9.75528 1.54508 2
    endloop
  endfacet
  facet normal -0 0 1
    outer loop
      vertex 7.93893 117.875 2
      vertex 9.04508 2.93893 2
      vertex 9.04508 118.981 2
    endloop
  endfacet
  facet normal 0 0 1
    outer loop
      vertex 7.93893 117.875 2
      vertex 7.93893 4.04508 2
      vertex 9.04508 2.93893 2
    endloop
  endfacet
  facet normal -0 0 1
    outer loop
      vertex 6.54508 117.165 2
      vertex 7.93893 4.04508 2
      vertex 7.93893 117.875 2
    endloop
  endfacet
  facet normal 0 0 1
    outer loop
      vertex 6.54508 117.165 2
      vertex 6.54508 4.75528 2
      vertex 7.93893 4.04508 2
    endloop
  endfacet
  facet normal 0 0 1
    outer loop
      vertex 6.54508 117.165 2
      vertex 5 5 2
      vertex 6.54508 4.75528 2
    endloop
  endfacet
  facet normal -0 0 1
    outer loop
      vertex 5 116.92 2
      vertex 5 5 2
      vertex 6.54508 117.165 2
    endloop
  endfacet
  facet normal 0 0 1
    outer loop
      vertex 3.45491 117.165 2
      vertex 5 5 2
      vertex 5 116.92 2
    endloop
  endfacet
  facet normal 0 0 1
    outer loop
      vertex 3.45491 117.165 2
      vertex 3.45491 4.75528 2
      vertex 5 5 2
    endloop
  endfacet
  facet normal 0 0 1
    outer loop
      vertex 2.06107 117.875 2
      vertex 3.45491 4.75528 2
      vertex 3.45491 117.165 2
    endloop
  endfacet
  facet normal 0 0 1
    outer loop
      vertex 2.06107 117.875 2
      vertex 2.06107 4.04508 2
      vertex 3.45491 4.75528 2
    endloop
  endfacet
  facet normal 0 0 1
    outer loop
      vertex 0.954914 118.981 2
      vertex 2.06107 4.04508 2
      vertex 2.06107 117.875 2
    endloop
  endfacet
  facet normal 0 0 1
    outer loop
      vertex 0.954914 118.981 2
      vertex 0.954914 2.93893 2
      vertex 2.06107 4.04508 2
    endloop
  endfacet
  facet normal 0 0 1
    outer loop
      vertex 0.244717 120.375 2
      vertex 0.954914 2.93893 2
      vertex 0.954914 118.981 2
    endloop
  endfacet
  facet normal 0 0 1
    outer loop
      vertex 0.244717 120.375 2
      vertex 0.244717 1.54508 2
      vertex 0.954914 2.93893 2
    endloop
  endfacet
  facet normal 0 0 1
    outer loop
      vertex 0 121.92 2
      vertex 0.244717 1.54508 2
      vertex 0.244717 120.375 2
    endloop
  endfacet
  facet normal 0 0 1
    outer loop
      vertex 0.244717 1.54508 2
      vertex 0 121.92 2
      vertex 0 0 2
    endloop
  endfacet
  facet normal 1 -0 0
    outer loop
      vertex 10 0 2
      vertex 10 121.92 0
      vertex 10 121.92 2
    endloop
  endfacet
  facet normal 1 0 0
    outer loop
      vertex 10 121.92 0
      vertex 10 0 2
      vertex 10 0 0
    endloop
  endfacet
  facet normal 0 0 -1
    outer loop
      vertex 6.60381 0.817183 0
      vertex 10 0 0
      vertex 6.7119 0.556231 0
    endloop
  endfacet
  facet normal -0 0 -1
    outer loop
      vertex 10 121.92 0
      vertex 6.77784 121.638 0
      vertex 6.8 121.92 0
    endloop
  endfacet
  facet normal 0 0 -1
    outer loop
      vertex 6.45623 1.05801 0
      vertex 10 0 0
      vertex 6.60381 0.817183 0
    endloop
  endfacet
  facet normal 0 0 -1
    outer loop
      vertex 10 121.92 0
      vertex 6.7119 121.364 0
      vertex 6.77784 121.638 0
    endloop
  endfacet
  facet normal 0 0 -1
    outer loop
      vertex 6.27279 1.27279 0
      vertex 10 0 0
      vertex 6.45623 1.05801 0
    endloop
  endfacet
  facet normal 0 0 -1
    outer loop
      vertex 10 121.92 0
      vertex 6.60381 121.103 0
      vertex 6.7119 121.364 0
    endloop
  endfacet
  facet normal 0 0 -1
    outer loop
      vertex 6.05801 1.45623 0
      vertex 10 0 0
      vertex 6.27279 1.27279 0
    endloop
  endfacet
  facet normal 0 0 -1
    outer loop
      vertex 10 121.92 0
      vertex 6.45623 120.862 0
      vertex 6.60381 121.103 0
    endloop
  endfacet
  facet normal 0 0 -1
    outer loop
      vertex 5.81718 1.60381 0
      vertex 10 0 0
      vertex 6.05801 1.45623 0
    endloop
  endfacet
  facet normal 0 0 -1
    outer loop
      vertex 10 121.92 0
      vertex 6.27279 120.647 0
      vertex 6.45623 120.862 0
    endloop
  endfacet
  facet normal 0 0 -1
    outer loop
      vertex 10 0 0
      vertex 5.81718 1.60381 0
      vertex 10 121.92 0
    endloop
  endfacet
  facet normal 0 0 -1
    outer loop
      vertex 10 121.92 0
      vertex 6.05801 120.464 0
      vertex 6.27279 120.647 0
    endloop
  endfacet
  facet normal 0 0 -1
    outer loop
      vertex 5.81718 120.316 0
      vertex 10 121.92 0
      vertex 5.81718 1.60381 0
    endloop
  endfacet
  facet normal 0 0 -1
    outer loop
      vertex 10 121.92 0
      vertex 5.81718 120.316 0
      vertex 6.05801 120.464 0
    endloop
  endfacet
  facet normal 0 0 -1
    outer loop
      vertex 5.55623 1.7119 0
      vertex 5.81718 120.316 0
      vertex 5.81718 1.60381 0
    endloop
  endfacet
  facet normal 0 0 -1
    outer loop
      vertex 5.55623 1.7119 0
      vertex 5.55623 120.208 0
      vertex 5.81718 120.316 0
    endloop
  endfacet
  facet normal 0 0 -1
    outer loop
      vertex 5.28158 1.77784 0
      vertex 5.55623 120.208 0
      vertex 5.55623 1.7119 0
    endloop
  endfacet
  facet normal 0 0 -1
    outer loop
      vertex 5.28158 1.77784 0
      vertex 5.28158 120.142 0
      vertex 5.55623 120.208 0
    endloop
  endfacet
  facet normal 0 0 -1
    outer loop
      vertex 5 1.8 0
      vertex 5.28158 120.142 0
      vertex 5.28158 1.77784 0
    endloop
  endfacet
  facet normal 0 0 -1
    outer loop
      vertex 5 1.8 0
      vertex 5 120.12 0
      vertex 5.28158 120.142 0
    endloop
  endfacet
  facet normal 0 0 -1
    outer loop
      vertex 4.71842 1.77784 0
      vertex 5 120.12 0
      vertex 5 1.8 0
    endloop
  endfacet
  facet normal 0 0 -1
    outer loop
      vertex 4.71842 1.77784 0
      vertex 4.71842 120.142 0
      vertex 5 120.12 0
    endloop
  endfacet
  facet normal 0 0 -1
    outer loop
      vertex 4.44377 1.7119 0
      vertex 4.71842 120.142 0
      vertex 4.71842 1.77784 0
    endloop
  endfacet
  facet normal 0 0 -1
    outer loop
      vertex 4.44377 1.7119 0
      vertex 4.44377 120.208 0
      vertex 4.71842 120.142 0
    endloop
  endfacet
  facet normal 0 0 -1
    outer loop
      vertex 4.18282 1.60381 0
      vertex 4.44377 120.208 0
      vertex 4.44377 1.7119 0
    endloop
  endfacet
  facet normal 0 0 -1
    outer loop
      vertex 4.18282 1.60381 0
      vertex 4.18282 120.316 0
      vertex 4.44377 120.208 0
    endloop
  endfacet
  facet normal 0 0 -1
    outer loop
      vertex 0 0 0
      vertex 4.18282 1.60381 0
      vertex 3.94199 1.45623 0
    endloop
  endfacet
  facet normal -0 0 -1
    outer loop
      vertex 4.18282 1.60381 0
      vertex 0 0 0
      vertex 4.18282 120.316 0
    endloop
  endfacet
  facet normal 0 0 -1
    outer loop
      vertex 0 0 0
      vertex 3.94199 1.45623 0
      vertex 3.72721 1.27279 0
    endloop
  endfacet
  facet normal 0 0 -1
    outer loop
      vertex 0 121.92 0
      vertex 4.18282 120.316 0
      vertex 0 0 0
    endloop
  endfacet
  facet normal 0 0 -1
    outer loop
      vertex 0 0 0
      vertex 3.72721 1.27279 0
      vertex 3.54377 1.05801 0
    endloop
  endfacet
  facet normal 0 0 -1
    outer loop
      vertex 4.18282 120.316 0
      vertex 0 121.92 0
      vertex 3.94199 120.464 0
    endloop
  endfacet
  facet normal 0 0 -1
    outer loop
      vertex 0 0 0
      vertex 3.54377 1.05801 0
      vertex 3.39619 0.817183 0
    endloop
  endfacet
  facet normal 0 0 -1
    outer loop
      vertex 3.94199 120.464 0
      vertex 0 121.92 0
      vertex 3.72721 120.647 0
    endloop
  endfacet
  facet normal 0 0 -1
    outer loop
      vertex 0 0 0
      vertex 3.39619 0.817183 0
      vertex 3.2881 0.556231 0
    endloop
  endfacet
  facet normal 0 0 -1
    outer loop
      vertex 3.72721 120.647 0
      vertex 0 121.92 0
      vertex 3.54377 120.862 0
    endloop
  endfacet
  facet normal 0 0 -1
    outer loop
      vertex 0 0 0
      vertex 3.2881 0.556231 0
      vertex 3.22216 0.281582 0
    endloop
  endfacet
  facet normal 0 0 -1
    outer loop
      vertex 3.54377 120.862 0
      vertex 0 121.92 0
      vertex 3.39619 121.103 0
    endloop
  endfacet
  facet normal 0 0 -1
    outer loop
      vertex 0 0 0
      vertex 3.22216 0.281582 0
      vertex 3.2 0 0
    endloop
  endfacet
  facet normal 0 0 -1
    outer loop
      vertex 3.39619 121.103 0
      vertex 0 121.92 0
      vertex 3.2881 121.364 0
    endloop
  endfacet
  facet normal 0 0 -1
    outer loop
      vertex 6.77784 -0.281582 0
      vertex 10 0 0
      vertex 9.75528 -1.54508 0
    endloop
  endfacet
  facet normal 0 0 -1
    outer loop
      vertex 6.77784 0.281582 0
      vertex 10 0 0
      vertex 6.8 0 0
    endloop
  endfacet
  facet normal 0 0 -1
    outer loop
      vertex 6.60381 -0.817183 0
      vertex 9.75528 -1.54508 0
      vertex 9.04508 -2.93893 0
    endloop
  endfacet
  facet normal 0 0 -1
    outer loop
      vertex 6.7119 0.556231 0
      vertex 10 0 0
      vertex 6.77784 0.281582 0
    endloop
  endfacet
  facet normal 0 0 -1
    outer loop
      vertex 6.27279 -1.27279 0
      vertex 9.04508 -2.93893 0
      vertex 7.93893 -4.04508 0
    endloop
  endfacet
  facet normal 0 0 -1
    outer loop
      vertex 6.77784 122.202 0
      vertex 10 121.92 0
      vertex 6.8 121.92 0
    endloop
  endfacet
  facet normal 0 0 -1
    outer loop
      vertex 10 121.92 0
      vertex 6.77784 122.202 0
      vertex 9.75528 123.465 0
    endloop
  endfacet
  facet normal -0 0 -1
    outer loop
      vertex 10 0 0
      vertex 6.77784 -0.281582 0
      vertex 6.8 0 0
    endloop
  endfacet
  facet normal 0 0 -1
    outer loop
      vertex 9.75528 -1.54508 0
      vertex 6.7119 -0.556231 0
      vertex 6.77784 -0.281582 0
    endloop
  endfacet
  facet normal 0 0 -1
    outer loop
      vertex 9.75528 -1.54508 0
      vertex 6.60381 -0.817183 0
      vertex 6.7119 -0.556231 0
    endloop
  endfacet
  facet normal 0 0 -1
    outer loop
      vertex 5.81718 -1.60381 0
      vertex 7.93893 -4.04508 0
      vertex 6.54508 -4.75528 0
    endloop
  endfacet
  facet normal 0 0 -1
    outer loop
      vertex 9.04508 -2.93893 0
      vertex 6.45623 -1.05801 0
      vertex 6.60381 -0.817183 0
    endloop
  endfacet
  facet normal 0 0 -1
    outer loop
      vertex 9.04508 -2.93893 0
      vertex 6.27279 -1.27279 0
      vertex 6.45623 -1.05801 0
    endloop
  endfacet
  facet normal 0 0 -1
    outer loop
      vertex 7.93893 -4.04508 0
      vertex 6.05801 -1.45623 0
      vertex 6.27279 -1.27279 0
    endloop
  endfacet
  facet normal 0 0 -1
    outer loop
      vertex 7.93893 -4.04508 0
      vertex 5.81718 -1.60381 0
      vertex 6.05801 -1.45623 0
    endloop
  endfacet
  facet normal 0 0 -1
    outer loop
      vertex 6.54508 -4.75528 0
      vertex 5.55623 -1.7119 0
      vertex 5.81718 -1.60381 0
    endloop
  endfacet
  facet normal 0 0 -1
    outer loop
      vertex 6.54508 -4.75528 0
      vertex 5.28158 -1.77784 0
      vertex 5.55623 -1.7119 0
    endloop
  endfacet
  facet normal 0 0 -1
    outer loop
      vertex 5 -5 0
      vertex 5.28158 -1.77784 0
      vertex 6.54508 -4.75528 0
    endloop
  endfacet
  facet normal 0 0 -1
    outer loop
      vertex 5.28158 -1.77784 0
      vertex 5 -5 0
      vertex 5 -1.8 0
    endloop
  endfacet
  facet normal 0 0 -1
    outer loop
      vertex 5 -5 0
      vertex 4.71842 -1.77784 0
      vertex 5 -1.8 0
    endloop
  endfacet
  facet normal 0 0 -1
    outer loop
      vertex 3.45491 -4.75528 0
      vertex 4.71842 -1.77784 0
      vertex 5 -5 0
    endloop
  endfacet
  facet normal -0 0 -1
    outer loop
      vertex 4.71842 -1.77784 0
      vertex 3.45491 -4.75528 0
      vertex 4.44377 -1.7119 0
    endloop
  endfacet
  facet normal -0 0 -1
    outer loop
      vertex 4.44377 -1.7119 0
      vertex 3.45491 -4.75528 0
      vertex 4.18282 -1.60381 0
    endloop
  endfacet
  facet normal 0 0 -1
    outer loop
      vertex 2.06107 -4.04508 0
      vertex 4.18282 -1.60381 0
      vertex 3.45491 -4.75528 0
    endloop
  endfacet
  facet normal -0 0 -1
    outer loop
      vertex 4.18282 -1.60381 0
      vertex 2.06107 -4.04508 0
      vertex 3.94199 -1.45623 0
    endloop
  endfacet
  facet normal -0 0 -1
    outer loop
      vertex 3.94199 -1.45623 0
      vertex 2.06107 -4.04508 0
      vertex 3.72721 -1.27279 0
    endloop
  endfacet
  facet normal 0 0 -1
    outer loop
      vertex 0.954914 -2.93893 0
      vertex 3.72721 -1.27279 0
      vertex 2.06107 -4.04508 0
    endloop
  endfacet
  facet normal -0 0 -1
    outer loop
      vertex 3.72721 -1.27279 0
      vertex 0.954914 -2.93893 0
      vertex 3.54377 -1.05801 0
    endloop
  endfacet
  facet normal -0 0 -1
    outer loop
      vertex 3.54377 -1.05801 0
      vertex 0.954914 -2.93893 0
      vertex 3.39619 -0.817183 0
    endloop
  endfacet
  facet normal 0 0 -1
    outer loop
      vertex 0.244717 -1.54508 0
      vertex 3.39619 -0.817183 0
      vertex 0.954914 -2.93893 0
    endloop
  endfacet
  facet normal -0 0 -1
    outer loop
      vertex 3.2881 -0.556231 0
      vertex 0.244717 -1.54508 0
      vertex 3.22216 -0.281582 0
    endloop
  endfacet
  facet normal -0 0 -1
    outer loop
      vertex 3.39619 -0.817183 0
      vertex 0.244717 -1.54508 0
      vertex 3.2881 -0.556231 0
    endloop
  endfacet
  facet normal 0 0 -1
    outer loop
      vertex 6.7119 122.476 0
      vertex 9.75528 123.465 0
      vertex 6.77784 122.202 0
    endloop
  endfacet
  facet normal 0 0 -1
    outer loop
      vertex 6.60381 122.737 0
      vertex 9.75528 123.465 0
      vertex 6.7119 122.476 0
    endloop
  endfacet
  facet normal -0 0 -1
    outer loop
      vertex 9.75528 123.465 0
      vertex 6.60381 122.737 0
      vertex 9.04508 124.859 0
    endloop
  endfacet
  facet normal 0 0 -1
    outer loop
      vertex 6.45623 122.978 0
      vertex 9.04508 124.859 0
      vertex 6.60381 122.737 0
    endloop
  endfacet
  facet normal 0 0 -1
    outer loop
      vertex 6.27279 123.193 0
      vertex 9.04508 124.859 0
      vertex 6.45623 122.978 0
    endloop
  endfacet
  facet normal -0 0 -1
    outer loop
      vertex 9.04508 124.859 0
      vertex 6.27279 123.193 0
      vertex 7.93893 125.965 0
    endloop
  endfacet
  facet normal 0 0 -1
    outer loop
      vertex 6.05801 123.376 0
      vertex 7.93893 125.965 0
      vertex 6.27279 123.193 0
    endloop
  endfacet
  facet normal 0 0 -1
    outer loop
      vertex 5.81718 123.524 0
      vertex 7.93893 125.965 0
      vertex 6.05801 123.376 0
    endloop
  endfacet
  facet normal -0 0 -1
    outer loop
      vertex 7.93893 125.965 0
      vertex 5.81718 123.524 0
      vertex 6.54508 126.675 0
    endloop
  endfacet
  facet normal 0 0 -1
    outer loop
      vertex 5.55623 123.632 0
      vertex 6.54508 126.675 0
      vertex 5.81718 123.524 0
    endloop
  endfacet
  facet normal 0 0 -1
    outer loop
      vertex 5.28158 123.698 0
      vertex 6.54508 126.675 0
      vertex 5.55623 123.632 0
    endloop
  endfacet
  facet normal 0 0 -1
    outer loop
      vertex 5 126.92 0
      vertex 5.28158 123.698 0
      vertex 5 123.72 0
    endloop
  endfacet
  facet normal 0 0 -1
    outer loop
      vertex 5.28158 123.698 0
      vertex 5 126.92 0
      vertex 6.54508 126.675 0
    endloop
  endfacet
  facet normal 0 0 -1
    outer loop
      vertex 4.71842 123.698 0
      vertex 5 126.92 0
      vertex 5 123.72 0
    endloop
  endfacet
  facet normal 0 0 -1
    outer loop
      vertex 3.45491 126.675 0
      vertex 4.71842 123.698 0
      vertex 4.44377 123.632 0
    endloop
  endfacet
  facet normal 0 0 -1
    outer loop
      vertex 3.45491 126.675 0
      vertex 4.44377 123.632 0
      vertex 4.18282 123.524 0
    endloop
  endfacet
  facet normal 0 0 -1
    outer loop
      vertex 2.06107 125.965 0
      vertex 4.18282 123.524 0
      vertex 3.94199 123.376 0
    endloop
  endfacet
  facet normal 0 0 -1
    outer loop
      vertex 2.06107 125.965 0
      vertex 3.94199 123.376 0
      vertex 3.72721 123.193 0
    endloop
  endfacet
  facet normal 0 0 -1
    outer loop
      vertex 0.954914 124.859 0
      vertex 3.72721 123.193 0
      vertex 3.54377 122.978 0
    endloop
  endfacet
  facet normal 0 0 -1
    outer loop
      vertex 4.71842 123.698 0
      vertex 3.45491 126.675 0
      vertex 5 126.92 0
    endloop
  endfacet
  facet normal 0 0 -1
    outer loop
      vertex 0.954914 124.859 0
      vertex 3.54377 122.978 0
      vertex 3.39619 122.737 0
    endloop
  endfacet
  facet normal 0 0 -1
    outer loop
      vertex 0.244717 123.465 0
      vertex 3.39619 122.737 0
      vertex 3.2881 122.476 0
    endloop
  endfacet
  facet normal 0 0 -1
    outer loop
      vertex 0.244717 123.465 0
      vertex 3.2881 122.476 0
      vertex 3.22216 122.202 0
    endloop
  endfacet
  facet normal 0 0 -1
    outer loop
      vertex 0 121.92 0
      vertex 3.22216 122.202 0
      vertex 3.2 121.92 0
    endloop
  endfacet
  facet normal 0 0 -1
    outer loop
      vertex 4.18282 123.524 0
      vertex 2.06107 125.965 0
      vertex 3.45491 126.675 0
    endloop
  endfacet
  facet normal 0 0 -1
    outer loop
      vertex 3.2881 121.364 0
      vertex 0 121.92 0
      vertex 3.22216 121.638 0
    endloop
  endfacet
  facet normal 0 0 -1
    outer loop
      vertex 0 0 0
      vertex 3.22216 -0.281582 0
      vertex 0.244717 -1.54508 0
    endloop
  endfacet
  facet normal 0 0 -1
    outer loop
      vertex 3.22216 121.638 0
      vertex 0 121.92 0
      vertex 3.2 121.92 0
    endloop
  endfacet
  facet normal 0 0 -1
    outer loop
      vertex 3.22216 -0.281582 0
      vertex 0 0 0
      vertex 3.2 0 0
    endloop
  endfacet
  facet normal -0 0 -1
    outer loop
      vertex 3.22216 122.202 0
      vertex 0 121.92 0
      vertex 0.244717 123.465 0
    endloop
  endfacet
  facet normal 0 0 -1
    outer loop
      vertex 3.72721 123.193 0
      vertex 0.954914 124.859 0
      vertex 2.06107 125.965 0
    endloop
  endfacet
  facet normal 0 0 -1
    outer loop
      vertex 3.39619 122.737 0
      vertex 0.244717 123.465 0
      vertex 0.954914 124.859 0
    endloop
  endfacet
  facet normal 0.987688 0.156435 0
    outer loop
      vertex 10 0 3
      vertex 9.75528 1.54508 2
      vertex 9.75528 1.54508 3
    endloop
  endfacet
  facet normal 0.987688 0.156435 0
    outer loop
      vertex 9.75528 1.54508 2
      vertex 10 0 3
      vertex 10 0 2
    endloop
  endfacet
  facet normal -0.156434 0.987688 0
    outer loop
      vertex 5 5 2
      vertex 3.45491 4.75528 3
      vertex 5 5 3
    endloop
  endfacet
  facet normal -0.156434 0.987688 0
    outer loop
      vertex 3.45491 4.75528 3
      vertex 5 5 2
      vertex 3.45491 4.75528 2
    endloop
  endfacet
  facet normal 0.156434 -0.987688 0
    outer loop
      vertex 5 -5 0
      vertex 6.54508 -4.75528 3
      vertex 5 -5 3
    endloop
  endfacet
  facet normal 0.156434 -0.987688 0
    outer loop
      vertex 6.54508 -4.75528 3
      vertex 5 -5 0
      vertex 6.54508 -4.75528 0
    endloop
  endfacet
  facet normal 0.891006 -0.453991 0
    outer loop
      vertex 9.04508 -2.93893 3
      vertex 9.75528 -1.54508 0
      vertex 9.75528 -1.54508 3
    endloop
  endfacet
  facet normal 0.891006 -0.453991 0
    outer loop
      vertex 9.75528 -1.54508 0
      vertex 9.04508 -2.93893 3
      vertex 9.04508 -2.93893 0
    endloop
  endfacet
  facet normal 0.453991 0.891006 -0
    outer loop
      vertex 7.93893 4.04508 2
      vertex 6.54508 4.75528 3
      vertex 7.93893 4.04508 3
    endloop
  endfacet
  facet normal 0.453991 0.891006 0
    outer loop
      vertex 6.54508 4.75528 3
      vertex 7.93893 4.04508 2
      vertex 6.54508 4.75528 2
    endloop
  endfacet
  facet normal 0.891006 0.453991 0
    outer loop
      vertex 9.75528 1.54508 3
      vertex 9.04508 2.93893 2
      vertex 9.04508 2.93893 3
    endloop
  endfacet
  facet normal 0.891006 0.453991 0
    outer loop
      vertex 9.04508 2.93893 2
      vertex 9.75528 1.54508 3
      vertex 9.75528 1.54508 2
    endloop
  endfacet
  facet normal 0.156435 0.987688 -0
    outer loop
      vertex 6.54508 4.75528 2
      vertex 5 5 3
      vertex 6.54508 4.75528 3
    endloop
  endfacet
  facet normal 0.156435 0.987688 0
    outer loop
      vertex 5 5 3
      vertex 6.54508 4.75528 2
      vertex 5 5 2
    endloop
  endfacet
  facet normal -0.891006 0.453991 0
    outer loop
      vertex 0.244717 1.54508 2
      vertex 0.954914 2.93893 3
      vertex 0.954914 2.93893 2
    endloop
  endfacet
  facet normal -0.891006 0.453991 0
    outer loop
      vertex 0.954914 2.93893 3
      vertex 0.244717 1.54508 2
      vertex 0.244717 1.54508 3
    endloop
  endfacet
  facet normal -0.987688 0.156434 0
    outer loop
      vertex 0 0 2
      vertex 0.244717 1.54508 3
      vertex 0.244717 1.54508 2
    endloop
  endfacet
  facet normal -0.987688 0.156434 0
    outer loop
      vertex 0.244717 1.54508 3
      vertex 0 0 2
      vertex 0 0 3
    endloop
  endfacet
  facet normal -0 0 1
    outer loop
      vertex 6.77784 0.281582 3
      vertex 10 0 3
      vertex 9.75528 1.54508 3
    endloop
  endfacet
  facet normal 0 0 1
    outer loop
      vertex 6.60381 0.817183 3
      vertex 9.75528 1.54508 3
      vertex 9.04508 2.93893 3
    endloop
  endfacet
  facet normal 0 0 1
    outer loop
      vertex 10 0 3
      vertex 6.77784 0.281582 3
      vertex 6.8 0 3
    endloop
  endfacet
  facet normal 0 0 1
    outer loop
      vertex 6.27279 1.27279 3
      vertex 9.04508 2.93893 3
      vertex 7.93893 4.04508 3
    endloop
  endfacet
  facet normal 0 0 1
    outer loop
      vertex 6.77784 -0.281582 3
      vertex 10 0 3
      vertex 6.8 0 3
    endloop
  endfacet
  facet normal -0 0 1
    outer loop
      vertex 6.7119 -0.556231 3
      vertex 9.75528 -1.54508 3
      vertex 6.77784 -0.281582 3
    endloop
  endfacet
  facet normal 0 0 1
    outer loop
      vertex 10 0 3
      vertex 6.77784 -0.281582 3
      vertex 9.75528 -1.54508 3
    endloop
  endfacet
  facet normal 0 0 1
    outer loop
      vertex 9.75528 1.54508 3
      vertex 6.7119 0.556231 3
      vertex 6.77784 0.281582 3
    endloop
  endfacet
  facet normal 0 0 1
    outer loop
      vertex 9.75528 1.54508 3
      vertex 6.60381 0.817183 3
      vertex 6.7119 0.556231 3
    endloop
  endfacet
  facet normal 0 0 1
    outer loop
      vertex 5.81718 1.60381 3
      vertex 7.93893 4.04508 3
      vertex 6.54508 4.75528 3
    endloop
  endfacet
  facet normal 0 0 1
    outer loop
      vertex 9.04508 2.93893 3
      vertex 6.45623 1.05801 3
      vertex 6.60381 0.817183 3
    endloop
  endfacet
  facet normal 0 0 1
    outer loop
      vertex 9.04508 2.93893 3
      vertex 6.27279 1.27279 3
      vertex 6.45623 1.05801 3
    endloop
  endfacet
  facet normal 0 0 1
    outer loop
      vertex 7.93893 4.04508 3
      vertex 6.05801 1.45623 3
      vertex 6.27279 1.27279 3
    endloop
  endfacet
  facet normal 0 0 1
    outer loop
      vertex 7.93893 4.04508 3
      vertex 5.81718 1.60381 3
      vertex 6.05801 1.45623 3
    endloop
  endfacet
  facet normal 0 0 1
    outer loop
      vertex 6.54508 4.75528 3
      vertex 5.55623 1.7119 3
      vertex 5.81718 1.60381 3
    endloop
  endfacet
  facet normal 0 0 1
    outer loop
      vertex 6.54508 4.75528 3
      vertex 5.28158 1.77784 3
      vertex 5.55623 1.7119 3
    endloop
  endfacet
  facet normal 0 0 1
    outer loop
      vertex 5 5 3
      vertex 5.28158 1.77784 3
      vertex 6.54508 4.75528 3
    endloop
  endfacet
  facet normal 0 0 1
    outer loop
      vertex 5 5 3
      vertex 5 1.8 3
      vertex 5.28158 1.77784 3
    endloop
  endfacet
  facet normal 0 0 1
    outer loop
      vertex 5 5 3
      vertex 4.71842 1.77784 3
      vertex 5 1.8 3
    endloop
  endfacet
  facet normal -0 0 1
    outer loop
      vertex 3.45491 4.75528 3
      vertex 4.71842 1.77784 3
      vertex 5 5 3
    endloop
  endfacet
  facet normal 0 0 1
    outer loop
      vertex 4.71842 1.77784 3
      vertex 3.45491 4.75528 3
      vertex 4.44377 1.7119 3
    endloop
  endfacet
  facet normal 0 0 1
    outer loop
      vertex 4.44377 1.7119 3
      vertex 3.45491 4.75528 3
      vertex 4.18282 1.60381 3
    endloop
  endfacet
  facet normal -0 0 1
    outer loop
      vertex 2.06107 4.04508 3
      vertex 4.18282 1.60381 3
      vertex 3.45491 4.75528 3
    endloop
  endfacet
  facet normal 0 0 1
    outer loop
      vertex 4.18282 1.60381 3
      vertex 2.06107 4.04508 3
      vertex 3.94199 1.45623 3
    endloop
  endfacet
  facet normal 0 0 1
    outer loop
      vertex 3.94199 1.45623 3
      vertex 2.06107 4.04508 3
      vertex 3.72721 1.27279 3
    endloop
  endfacet
  facet normal -0 0 1
    outer loop
      vertex 0.954914 2.93893 3
      vertex 3.72721 1.27279 3
      vertex 2.06107 4.04508 3
    endloop
  endfacet
  facet normal 0 0 1
    outer loop
      vertex 3.72721 1.27279 3
      vertex 0.954914 2.93893 3
      vertex 3.54377 1.05801 3
    endloop
  endfacet
  facet normal 0 0 1
    outer loop
      vertex 3.54377 1.05801 3
      vertex 0.954914 2.93893 3
      vertex 3.39619 0.817183 3
    endloop
  endfacet
  facet normal -0 0 1
    outer loop
      vertex 0.244717 1.54508 3
      vertex 3.39619 0.817183 3
      vertex 0.954914 2.93893 3
    endloop
  endfacet
  facet normal 0 0 1
    outer loop
      vertex 3.39619 0.817183 3
      vertex 0.244717 1.54508 3
      vertex 3.2881 0.556231 3
    endloop
  endfacet
  facet normal -0 0 1
    outer loop
      vertex 6.60381 -0.817183 3
      vertex 9.75528 -1.54508 3
      vertex 6.7119 -0.556231 3
    endloop
  endfacet
  facet normal 0 0 1
    outer loop
      vertex 9.75528 -1.54508 3
      vertex 6.60381 -0.817183 3
      vertex 9.04508 -2.93893 3
    endloop
  endfacet
  facet normal -0 0 1
    outer loop
      vertex 6.45623 -1.05801 3
      vertex 9.04508 -2.93893 3
      vertex 6.60381 -0.817183 3
    endloop
  endfacet
  facet normal -0 0 1
    outer loop
      vertex 6.27279 -1.27279 3
      vertex 9.04508 -2.93893 3
      vertex 6.45623 -1.05801 3
    endloop
  endfacet
  facet normal 0 0 1
    outer loop
      vertex 9.04508 -2.93893 3
      vertex 6.27279 -1.27279 3
      vertex 7.93893 -4.04508 3
    endloop
  endfacet
  facet normal -0 0 1
    outer loop
      vertex 6.05801 -1.45623 3
      vertex 7.93893 -4.04508 3
      vertex 6.27279 -1.27279 3
    endloop
  endfacet
  facet normal -0 0 1
    outer loop
      vertex 5.81718 -1.60381 3
      vertex 7.93893 -4.04508 3
      vertex 6.05801 -1.45623 3
    endloop
  endfacet
  facet normal 0 0 1
    outer loop
      vertex 7.93893 -4.04508 3
      vertex 5.81718 -1.60381 3
      vertex 6.54508 -4.75528 3
    endloop
  endfacet
  facet normal -0 0 1
    outer loop
      vertex 5.55623 -1.7119 3
      vertex 6.54508 -4.75528 3
      vertex 5.81718 -1.60381 3
    endloop
  endfacet
  facet normal -0 0 1
    outer loop
      vertex 5.28158 -1.77784 3
      vertex 6.54508 -4.75528 3
      vertex 5.55623 -1.7119 3
    endloop
  endfacet
  facet normal 0 0 1
    outer loop
      vertex 5 -5 3
      vertex 5.28158 -1.77784 3
      vertex 5 -1.8 3
    endloop
  endfacet
  facet normal 0 0 1
    outer loop
      vertex 5.28158 -1.77784 3
      vertex 5 -5 3
      vertex 6.54508 -4.75528 3
    endloop
  endfacet
  facet normal 0 0 1
    outer loop
      vertex 4.71842 -1.77784 3
      vertex 5 -5 3
      vertex 5 -1.8 3
    endloop
  endfacet
  facet normal 0 0 1
    outer loop
      vertex 3.45491 -4.75528 3
      vertex 4.71842 -1.77784 3
      vertex 4.44377 -1.7119 3
    endloop
  endfacet
  facet normal 0 0 1
    outer loop
      vertex 3.45491 -4.75528 3
      vertex 4.44377 -1.7119 3
      vertex 4.18282 -1.60381 3
    endloop
  endfacet
  facet normal 0 0 1
    outer loop
      vertex 2.06107 -4.04508 3
      vertex 4.18282 -1.60381 3
      vertex 3.94199 -1.45623 3
    endloop
  endfacet
  facet normal 0 0 1
    outer loop
      vertex 2.06107 -4.04508 3
      vertex 3.94199 -1.45623 3
      vertex 3.72721 -1.27279 3
    endloop
  endfacet
  facet normal 0 0 1
    outer loop
      vertex 0.954914 -2.93893 3
      vertex 3.72721 -1.27279 3
      vertex 3.54377 -1.05801 3
    endloop
  endfacet
  facet normal 0 0 1
    outer loop
      vertex 4.71842 -1.77784 3
      vertex 3.45491 -4.75528 3
      vertex 5 -5 3
    endloop
  endfacet
  facet normal 0 0 1
    outer loop
      vertex 0.954914 -2.93893 3
      vertex 3.54377 -1.05801 3
      vertex 3.39619 -0.817183 3
    endloop
  endfacet
  facet normal 0 0 1
    outer loop
      vertex 0.244717 -1.54508 3
      vertex 3.39619 -0.817183 3
      vertex 3.2881 -0.556231 3
    endloop
  endfacet
  facet normal 0 0 1
    outer loop
      vertex 0.244717 -1.54508 3
      vertex 3.2881 -0.556231 3
      vertex 3.22216 -0.281582 3
    endloop
  endfacet
  facet normal -0 0 1
    outer loop
      vertex 0 0 3
      vertex 3.22216 -0.281582 3
      vertex 3.2 0 3
    endloop
  endfacet
  facet normal 0 0 1
    outer loop
      vertex 3.2881 0.556231 3
      vertex 0.244717 1.54508 3
      vertex 3.22216 0.281582 3
    endloop
  endfacet
  facet normal 0 0 1
    outer loop
      vertex 4.18282 -1.60381 3
      vertex 2.06107 -4.04508 3
      vertex 3.45491 -4.75528 3
    endloop
  endfacet
  facet normal 0 0 1
    outer loop
      vertex 0 0 3
      vertex 3.22216 0.281582 3
      vertex 0.244717 1.54508 3
    endloop
  endfacet
  facet normal 0 0 1
    outer loop
      vertex 3.72721 -1.27279 3
      vertex 0.954914 -2.93893 3
      vertex 2.06107 -4.04508 3
    endloop
  endfacet
  facet normal 0 0 1
    outer loop
      vertex 3.22216 0.281582 3
      vertex 0 0 3
      vertex 3.2 0 3
    endloop
  endfacet
  facet normal 0 0 1
    outer loop
      vertex 3.39619 -0.817183 3
      vertex 0.244717 -1.54508 3
      vertex 0.954914 -2.93893 3
    endloop
  endfacet
  facet normal 0 0 1
    outer loop
      vertex 3.22216 -0.281582 3
      vertex 0 0 3
      vertex 0.244717 -1.54508 3
    endloop
  endfacet
  facet normal -0.453991 0.891006 0
    outer loop
      vertex 3.45491 4.75528 2
      vertex 2.06107 4.04508 3
      vertex 3.45491 4.75528 3
    endloop
  endfacet
  facet normal -0.453991 0.891006 0
    outer loop
      vertex 2.06107 4.04508 3
      vertex 3.45491 4.75528 2
      vertex 2.06107 4.04508 2
    endloop
  endfacet
  facet normal 0.987688 -0.156435 0
    outer loop
      vertex 9.75528 -1.54508 3
      vertex 10 0 2
      vertex 10 0 3
    endloop
  endfacet
  facet normal 0.987688 -0.156435 0
    outer loop
      vertex 9.75528 -1.54508 0
      vertex 10 0 2
      vertex 9.75528 -1.54508 3
    endloop
  endfacet
  facet normal 0.987688 -0.156435 0
    outer loop
      vertex 10 0 2
      vertex 9.75528 -1.54508 0
      vertex 10 0 0
    endloop
  endfacet
  facet normal 0.707107 0.707107 0
    outer loop
      vertex 9.04508 2.93893 3
      vertex 7.93893 4.04508 2
      vertex 7.93893 4.04508 3
    endloop
  endfacet
  facet normal 0.707107 0.707107 0
    outer loop
      vertex 7.93893 4.04508 2
      vertex 9.04508 2.93893 3
      vertex 9.04508 2.93893 2
    endloop
  endfacet
  facet normal -0.987688 -0.156434 0
    outer loop
      vertex 0.244717 -1.54508 0
      vertex 0 0 2
      vertex 0 0 0
    endloop
  endfacet
  facet normal -0.987688 -0.156434 -0
    outer loop
      vertex 0.244717 -1.54508 3
      vertex 0 0 2
      vertex 0.244717 -1.54508 0
    endloop
  endfacet
  facet normal -0.987688 -0.156434 0
    outer loop
      vertex 0 0 2
      vertex 0.244717 -1.54508 3
      vertex 0 0 3
    endloop
  endfacet
  facet normal -0.707107 0.707107 0
    outer loop
      vertex 0.954914 2.93893 2
      vertex 2.06107 4.04508 3
      vertex 2.06107 4.04508 2
    endloop
  endfacet
  facet normal -0.707107 0.707107 0
    outer loop
      vertex 2.06107 4.04508 3
      vertex 0.954914 2.93893 2
      vertex 0.954914 2.93893 3
    endloop
  endfacet
  facet normal 0.453991 -0.891006 0
    outer loop
      vertex 6.54508 -4.75528 0
      vertex 7.93893 -4.04508 3
      vertex 6.54508 -4.75528 3
    endloop
  endfacet
  facet normal 0.453991 -0.891006 0
    outer loop
      vertex 7.93893 -4.04508 3
      vertex 6.54508 -4.75528 0
      vertex 7.93893 -4.04508 0
    endloop
  endfacet
  facet normal 0.707107 -0.707107 0
    outer loop
      vertex 7.93893 -4.04508 3
      vertex 9.04508 -2.93893 0
      vertex 9.04508 -2.93893 3
    endloop
  endfacet
  facet normal 0.707107 -0.707107 0
    outer loop
      vertex 9.04508 -2.93893 0
      vertex 7.93893 -4.04508 3
      vertex 7.93893 -4.04508 0
    endloop
  endfacet
  facet normal -0.156435 -0.987688 0
    outer loop
      vertex 3.45491 -4.75528 0
      vertex 5 -5 3
      vertex 3.45491 -4.75528 3
    endloop
  endfacet
  facet normal -0.156435 -0.987688 -0
    outer loop
      vertex 5 -5 3
      vertex 3.45491 -4.75528 0
      vertex 5 -5 0
    endloop
  endfacet
  facet normal -0.707107 -0.707107 0
    outer loop
      vertex 2.06107 -4.04508 0
      vertex 0.954914 -2.93893 3
      vertex 0.954914 -2.93893 0
    endloop
  endfacet
  facet normal -0.707107 -0.707107 0
    outer loop
      vertex 0.954914 -2.93893 3
      vertex 2.06107 -4.04508 0
      vertex 2.06107 -4.04508 3
    endloop
  endfacet
  facet normal -0.891006 -0.453991 0
    outer loop
      vertex 0.954914 -2.93893 0
      vertex 0.244717 -1.54508 3
      vertex 0.244717 -1.54508 0
    endloop
  endfacet
  facet normal -0.891006 -0.453991 0
    outer loop
      vertex 0.244717 -1.54508 3
      vertex 0.954914 -2.93893 0
      vertex 0.954914 -2.93893 3
    endloop
  endfacet
  facet normal -0.453991 -0.891006 0
    outer loop
      vertex 2.06107 -4.04508 0
      vertex 3.45491 -4.75528 3
      vertex 2.06107 -4.04508 3
    endloop
  endfacet
  facet normal -0.453991 -0.891006 -0
    outer loop
      vertex 3.45491 -4.75528 3
      vertex 2.06107 -4.04508 0
      vertex 3.45491 -4.75528 0
    endloop
  endfacet
  facet normal 0.987688 0.156434 -0
    outer loop
      vertex 10 121.92 2
      vertex 9.75528 123.465 3
      vertex 10 121.92 3
    endloop
  endfacet
  facet normal 0.987688 0.156434 0
    outer loop
      vertex 9.75528 123.465 3
      vertex 10 121.92 2
      vertex 9.75528 123.465 0
    endloop
  endfacet
  facet normal 0.987688 0.156434 0
    outer loop
      vertex 9.75528 123.465 0
      vertex 10 121.92 2
      vertex 10 121.92 0
    endloop
  endfacet
  facet normal -0.987688 -0.156434 0
    outer loop
      vertex 0.244717 120.375 2
      vertex 0 121.92 3
      vertex 0 121.92 2
    endloop
  endfacet
  facet normal -0.987688 -0.156434 0
    outer loop
      vertex 0 121.92 3
      vertex 0.244717 120.375 2
      vertex 0.244717 120.375 3
    endloop
  endfacet
  facet normal -0.156432 0.987689 0
    outer loop
      vertex 5 126.92 0
      vertex 3.45491 126.675 3
      vertex 5 126.92 3
    endloop
  endfacet
  facet normal -0.156432 0.987689 0
    outer loop
      vertex 3.45491 126.675 3
      vertex 5 126.92 0
      vertex 3.45491 126.675 0
    endloop
  endfacet
  facet normal 0.156436 -0.987688 0
    outer loop
      vertex 5 116.92 2
      vertex 6.54508 117.165 3
      vertex 5 116.92 3
    endloop
  endfacet
  facet normal 0.156436 -0.987688 0
    outer loop
      vertex 6.54508 117.165 3
      vertex 5 116.92 2
      vertex 6.54508 117.165 2
    endloop
  endfacet
  facet normal 0.891007 -0.45399 0
    outer loop
      vertex 9.04508 118.981 3
      vertex 9.75528 120.375 2
      vertex 9.75528 120.375 3
    endloop
  endfacet
  facet normal 0.891007 -0.45399 0
    outer loop
      vertex 9.75528 120.375 2
      vertex 9.04508 118.981 3
      vertex 9.04508 118.981 2
    endloop
  endfacet
  facet normal 0.453991 0.891006 -0
    outer loop
      vertex 7.93893 125.965 0
      vertex 6.54508 126.675 3
      vertex 7.93893 125.965 3
    endloop
  endfacet
  facet normal 0.453991 0.891006 0
    outer loop
      vertex 6.54508 126.675 3
      vertex 7.93893 125.965 0
      vertex 6.54508 126.675 0
    endloop
  endfacet
  facet normal 0.891006 0.453992 0
    outer loop
      vertex 9.75528 123.465 3
      vertex 9.04508 124.859 0
      vertex 9.04508 124.859 3
    endloop
  endfacet
  facet normal 0.891006 0.453992 0
    outer loop
      vertex 9.04508 124.859 0
      vertex 9.75528 123.465 3
      vertex 9.75528 123.465 0
    endloop
  endfacet
  facet normal 0.156432 0.987689 -0
    outer loop
      vertex 6.54508 126.675 0
      vertex 5 126.92 3
      vertex 6.54508 126.675 3
    endloop
  endfacet
  facet normal 0.156432 0.987689 0
    outer loop
      vertex 5 126.92 3
      vertex 6.54508 126.675 0
      vertex 5 126.92 0
    endloop
  endfacet
  facet normal -0.707108 0.707106 0
    outer loop
      vertex 0.954914 124.859 0
      vertex 2.06107 125.965 3
      vertex 2.06107 125.965 0
    endloop
  endfacet
  facet normal -0.707108 0.707106 0
    outer loop
      vertex 2.06107 125.965 3
      vertex 0.954914 124.859 0
      vertex 0.954914 124.859 3
    endloop
  endfacet
  facet normal -0.891006 0.453992 0
    outer loop
      vertex 0.244717 123.465 0
      vertex 0.954914 124.859 3
      vertex 0.954914 124.859 0
    endloop
  endfacet
  facet normal -0.891006 0.453992 0
    outer loop
      vertex 0.954914 124.859 3
      vertex 0.244717 123.465 0
      vertex 0.244717 123.465 3
    endloop
  endfacet
  facet normal -0.453991 0.891006 0
    outer loop
      vertex 3.45491 126.675 0
      vertex 2.06107 125.965 3
      vertex 3.45491 126.675 3
    endloop
  endfacet
  facet normal -0.453991 0.891006 0
    outer loop
      vertex 2.06107 125.965 3
      vertex 3.45491 126.675 0
      vertex 2.06107 125.965 0
    endloop
  endfacet
  facet normal 0.987688 -0.156435 0
    outer loop
      vertex 9.75528 120.375 3
      vertex 10 121.92 2
      vertex 10 121.92 3
    endloop
  endfacet
  facet normal 0.987688 -0.156435 0
    outer loop
      vertex 10 121.92 2
      vertex 9.75528 120.375 3
      vertex 9.75528 120.375 2
    endloop
  endfacet
  facet normal 0.707108 0.707106 0
    outer loop
      vertex 9.04508 124.859 3
      vertex 7.93893 125.965 0
      vertex 7.93893 125.965 3
    endloop
  endfacet
  facet normal 0.707108 0.707106 0
    outer loop
      vertex 7.93893 125.965 0
      vertex 9.04508 124.859 3
      vertex 9.04508 124.859 0
    endloop
  endfacet
  facet normal -0.987688 0.156434 0
    outer loop
      vertex 0 121.92 2
      vertex 0.244717 123.465 0
      vertex 0 121.92 0
    endloop
  endfacet
  facet normal -0.987688 0.156434 0
    outer loop
      vertex 0.244717 123.465 0
      vertex 0 121.92 2
      vertex 0.244717 123.465 3
    endloop
  endfacet
  facet normal -0.987688 0.156434 0
    outer loop
      vertex 0.244717 123.465 3
      vertex 0 121.92 2
      vertex 0 121.92 3
    endloop
  endfacet
  facet normal -0 0 1
    outer loop
      vertex 6.77784 122.202 3
      vertex 10 121.92 3
      vertex 9.75528 123.465 3
    endloop
  endfacet
  facet normal 0 0 1
    outer loop
      vertex 6.60381 122.737 3
      vertex 9.75528 123.465 3
      vertex 9.04508 124.859 3
    endloop
  endfacet
  facet normal 0 0 1
    outer loop
      vertex 10 121.92 3
      vertex 6.77784 122.202 3
      vertex 6.8 121.92 3
    endloop
  endfacet
  facet normal 0 0 1
    outer loop
      vertex 6.27279 123.193 3
      vertex 9.04508 124.859 3
      vertex 7.93893 125.965 3
    endloop
  endfacet
  facet normal 0 0 1
    outer loop
      vertex 6.77784 121.638 3
      vertex 10 121.92 3
      vertex 6.8 121.92 3
    endloop
  endfacet
  facet normal -0 0 1
    outer loop
      vertex 6.7119 121.364 3
      vertex 9.75528 120.375 3
      vertex 6.77784 121.638 3
    endloop
  endfacet
  facet normal 0 0 1
    outer loop
      vertex 10 121.92 3
      vertex 6.77784 121.638 3
      vertex 9.75528 120.375 3
    endloop
  endfacet
  facet normal 0 0 1
    outer loop
      vertex 9.75528 123.465 3
      vertex 6.7119 122.476 3
      vertex 6.77784 122.202 3
    endloop
  endfacet
  facet normal 0 0 1
    outer loop
      vertex 9.75528 123.465 3
      vertex 6.60381 122.737 3
      vertex 6.7119 122.476 3
    endloop
  endfacet
  facet normal 0 0 1
    outer loop
      vertex 5.81718 123.524 3
      vertex 7.93893 125.965 3
      vertex 6.54508 126.675 3
    endloop
  endfacet
  facet normal 0 0 1
    outer loop
      vertex 9.04508 124.859 3
      vertex 6.45623 122.978 3
      vertex 6.60381 122.737 3
    endloop
  endfacet
  facet normal 0 0 1
    outer loop
      vertex 9.04508 124.859 3
      vertex 6.27279 123.193 3
      vertex 6.45623 122.978 3
    endloop
  endfacet
  facet normal 0 0 1
    outer loop
      vertex 7.93893 125.965 3
      vertex 6.05801 123.376 3
      vertex 6.27279 123.193 3
    endloop
  endfacet
  facet normal 0 0 1
    outer loop
      vertex 7.93893 125.965 3
      vertex 5.81718 123.524 3
      vertex 6.05801 123.376 3
    endloop
  endfacet
  facet normal 0 0 1
    outer loop
      vertex 6.54508 126.675 3
      vertex 5.55623 123.632 3
      vertex 5.81718 123.524 3
    endloop
  endfacet
  facet normal 0 0 1
    outer loop
      vertex 6.54508 126.675 3
      vertex 5.28158 123.698 3
      vertex 5.55623 123.632 3
    endloop
  endfacet
  facet normal 0 0 1
    outer loop
      vertex 5 126.92 3
      vertex 5.28158 123.698 3
      vertex 6.54508 126.675 3
    endloop
  endfacet
  facet normal 0 0 1
    outer loop
      vertex 5 126.92 3
      vertex 5 123.72 3
      vertex 5.28158 123.698 3
    endloop
  endfacet
  facet normal 0 0 1
    outer loop
      vertex 5 126.92 3
      vertex 4.71842 123.698 3
      vertex 5 123.72 3
    endloop
  endfacet
  facet normal -0 0 1
    outer loop
      vertex 3.45491 126.675 3
      vertex 4.71842 123.698 3
      vertex 5 126.92 3
    endloop
  endfacet
  facet normal 0 0 1
    outer loop
      vertex 4.71842 123.698 3
      vertex 3.45491 126.675 3
      vertex 4.44377 123.632 3
    endloop
  endfacet
  facet normal 0 0 1
    outer loop
      vertex 4.44377 123.632 3
      vertex 3.45491 126.675 3
      vertex 4.18282 123.524 3
    endloop
  endfacet
  facet normal -0 0 1
    outer loop
      vertex 2.06107 125.965 3
      vertex 4.18282 123.524 3
      vertex 3.45491 126.675 3
    endloop
  endfacet
  facet normal 0 0 1
    outer loop
      vertex 4.18282 123.524 3
      vertex 2.06107 125.965 3
      vertex 3.94199 123.376 3
    endloop
  endfacet
  facet normal 0 0 1
    outer loop
      vertex 3.94199 123.376 3
      vertex 2.06107 125.965 3
      vertex 3.72721 123.193 3
    endloop
  endfacet
  facet normal -0 0 1
    outer loop
      vertex 0.954914 124.859 3
      vertex 3.72721 123.193 3
      vertex 2.06107 125.965 3
    endloop
  endfacet
  facet normal 0 0 1
    outer loop
      vertex 3.72721 123.193 3
      vertex 0.954914 124.859 3
      vertex 3.54377 122.978 3
    endloop
  endfacet
  facet normal 0 0 1
    outer loop
      vertex 3.54377 122.978 3
      vertex 0.954914 124.859 3
      vertex 3.39619 122.737 3
    endloop
  endfacet
  facet normal -0 0 1
    outer loop
      vertex 0.244717 123.465 3
      vertex 3.39619 122.737 3
      vertex 0.954914 124.859 3
    endloop
  endfacet
  facet normal 0 0 1
    outer loop
      vertex 3.39619 122.737 3
      vertex 0.244717 123.465 3
      vertex 3.2881 122.476 3
    endloop
  endfacet
  facet normal -0 0 1
    outer loop
      vertex 6.60381 121.103 3
      vertex 9.75528 120.375 3
      vertex 6.7119 121.364 3
    endloop
  endfacet
  facet normal 0 0 1
    outer loop
      vertex 9.75528 120.375 3
      vertex 6.60381 121.103 3
      vertex 9.04508 118.981 3
    endloop
  endfacet
  facet normal -0 0 1
    outer loop
      vertex 6.45623 120.862 3
      vertex 9.04508 118.981 3
      vertex 6.60381 121.103 3
    endloop
  endfacet
  facet normal -0 0 1
    outer loop
      vertex 6.27279 120.647 3
      vertex 9.04508 118.981 3
      vertex 6.45623 120.862 3
    endloop
  endfacet
  facet normal 0 0 1
    outer loop
      vertex 9.04508 118.981 3
      vertex 6.27279 120.647 3
      vertex 7.93893 117.875 3
    endloop
  endfacet
  facet normal -0 0 1
    outer loop
      vertex 6.05801 120.464 3
      vertex 7.93893 117.875 3
      vertex 6.27279 120.647 3
    endloop
  endfacet
  facet normal -0 0 1
    outer loop
      vertex 5.81718 120.316 3
      vertex 7.93893 117.875 3
      vertex 6.05801 120.464 3
    endloop
  endfacet
  facet normal 0 0 1
    outer loop
      vertex 7.93893 117.875 3
      vertex 5.81718 120.316 3
      vertex 6.54508 117.165 3
    endloop
  endfacet
  facet normal -0 0 1
    outer loop
      vertex 5.55623 120.208 3
      vertex 6.54508 117.165 3
      vertex 5.81718 120.316 3
    endloop
  endfacet
  facet normal -0 0 1
    outer loop
      vertex 5.28158 120.142 3
      vertex 6.54508 117.165 3
      vertex 5.55623 120.208 3
    endloop
  endfacet
  facet normal 0 0 1
    outer loop
      vertex 5 116.92 3
      vertex 5.28158 120.142 3
      vertex 5 120.12 3
    endloop
  endfacet
  facet normal 0 0 1
    outer loop
      vertex 5.28158 120.142 3
      vertex 5 116.92 3
      vertex 6.54508 117.165 3
    endloop
  endfacet
  facet normal 0 0 1
    outer loop
      vertex 4.71842 120.142 3
      vertex 5 116.92 3
      vertex 5 120.12 3
    endloop
  endfacet
  facet normal 0 0 1
    outer loop
      vertex 3.45491 117.165 3
      vertex 4.71842 120.142 3
      vertex 4.44377 120.208 3
    endloop
  endfacet
  facet normal 0 0 1
    outer loop
      vertex 3.45491 117.165 3
      vertex 4.44377 120.208 3
      vertex 4.18282 120.316 3
    endloop
  endfacet
  facet normal 0 0 1
    outer loop
      vertex 2.06107 117.875 3
      vertex 4.18282 120.316 3
      vertex 3.94199 120.464 3
    endloop
  endfacet
  facet normal 0 0 1
    outer loop
      vertex 2.06107 117.875 3
      vertex 3.94199 120.464 3
      vertex 3.72721 120.647 3
    endloop
  endfacet
  facet normal 0 0 1
    outer loop
      vertex 0.954914 118.981 3
      vertex 3.72721 120.647 3
      vertex 3.54377 120.862 3
    endloop
  endfacet
  facet normal 0 0 1
    outer loop
      vertex 4.71842 120.142 3
      vertex 3.45491 117.165 3
      vertex 5 116.92 3
    endloop
  endfacet
  facet normal 0 0 1
    outer loop
      vertex 0.954914 118.981 3
      vertex 3.54377 120.862 3
      vertex 3.39619 121.103 3
    endloop
  endfacet
  facet normal 0 0 1
    outer loop
      vertex 0.244717 120.375 3
      vertex 3.39619 121.103 3
      vertex 3.2881 121.364 3
    endloop
  endfacet
  facet normal 0 0 1
    outer loop
      vertex 0.244717 120.375 3
      vertex 3.2881 121.364 3
      vertex 3.22216 121.638 3
    endloop
  endfacet
  facet normal -0 0 1
    outer loop
      vertex 0 121.92 3
      vertex 3.22216 121.638 3
      vertex 3.2 121.92 3
    endloop
  endfacet
  facet normal 0 0 1
    outer loop
      vertex 3.2881 122.476 3
      vertex 0.244717 123.465 3
      vertex 3.22216 122.202 3
    endloop
  endfacet
  facet normal 0 0 1
    outer loop
      vertex 4.18282 120.316 3
      vertex 2.06107 117.875 3
      vertex 3.45491 117.165 3
    endloop
  endfacet
  facet normal 0 0 1
    outer loop
      vertex 0 121.92 3
      vertex 3.22216 122.202 3
      vertex 0.244717 123.465 3
    endloop
  endfacet
  facet normal 0 0 1
    outer loop
      vertex 3.72721 120.647 3
      vertex 0.954914 118.981 3
      vertex 2.06107 117.875 3
    endloop
  endfacet
  facet normal 0 0 1
    outer loop
      vertex 3.22216 122.202 3
      vertex 0 121.92 3
      vertex 3.2 121.92 3
    endloop
  endfacet
  facet normal 0 0 1
    outer loop
      vertex 3.39619 121.103 3
      vertex 0.244717 120.375 3
      vertex 0.954914 118.981 3
    endloop
  endfacet
  facet normal 0 0 1
    outer loop
      vertex 3.22216 121.638 3
      vertex 0 121.92 3
      vertex 0.244717 120.375 3
    endloop
  endfacet
  facet normal 0.453991 -0.891006 0
    outer loop
      vertex 6.54508 117.165 2
      vertex 7.93893 117.875 3
      vertex 6.54508 117.165 3
    endloop
  endfacet
  facet normal 0.453991 -0.891006 0
    outer loop
      vertex 7.93893 117.875 3
      vertex 6.54508 117.165 2
      vertex 7.93893 117.875 2
    endloop
  endfacet
  facet normal 0.707106 -0.707108 0
    outer loop
      vertex 7.93893 117.875 2
      vertex 9.04508 118.981 3
      vertex 7.93893 117.875 3
    endloop
  endfacet
  facet normal 0.707106 -0.707108 0
    outer loop
      vertex 9.04508 118.981 3
      vertex 7.93893 117.875 2
      vertex 9.04508 118.981 2
    endloop
  endfacet
  facet normal -0.156436 -0.987688 0
    outer loop
      vertex 3.45491 117.165 2
      vertex 5 116.92 3
      vertex 3.45491 117.165 3
    endloop
  endfacet
  facet normal -0.156436 -0.987688 -0
    outer loop
      vertex 5 116.92 3
      vertex 3.45491 117.165 2
      vertex 5 116.92 2
    endloop
  endfacet
  facet normal -0.707106 -0.707108 0
    outer loop
      vertex 0.954914 118.981 2
      vertex 2.06107 117.875 3
      vertex 0.954914 118.981 3
    endloop
  endfacet
  facet normal -0.707106 -0.707108 -0
    outer loop
      vertex 2.06107 117.875 3
      vertex 0.954914 118.981 2
      vertex 2.06107 117.875 2
    endloop
  endfacet
  facet normal -0.891007 -0.45399 0
    outer loop
      vertex 0.954914 118.981 2
      vertex 0.244717 120.375 3
      vertex 0.244717 120.375 2
    endloop
  endfacet
  facet normal -0.891007 -0.45399 0
    outer loop
      vertex 0.244717 120.375 3
      vertex 0.954914 118.981 2
      vertex 0.954914 118.981 3
    endloop
  endfacet
  facet normal -0.453991 -0.891006 0
    outer loop
      vertex 2.06107 117.875 2
      vertex 3.45491 117.165 3
      vertex 2.06107 117.875 3
    endloop
  endfacet
  facet normal -0.453991 -0.891006 -0
    outer loop
      vertex 3.45491 117.165 3
      vertex 2.06107 117.875 2
      vertex 3.45491 117.165 2
    endloop
  endfacet
  facet normal -0.996917 -0.0784575 0
    outer loop
      vertex 6.8 0 0
      vertex 6.77784 0.281582 3
      vertex 6.77784 0.281582 0
    endloop
  endfacet
  facet normal -0.996917 -0.0784575 0
    outer loop
      vertex 6.77784 0.281582 3
      vertex 6.8 0 0
      vertex 6.8 0 3
    endloop
  endfacet
  facet normal 0.996917 -0.0784575 0
    outer loop
      vertex 3.2 0 3
      vertex 3.22216 0.281582 0
      vertex 3.22216 0.281582 3
    endloop
  endfacet
  facet normal 0.996917 -0.0784575 0
    outer loop
      vertex 3.22216 0.281582 0
      vertex 3.2 0 3
      vertex 3.2 0 0
    endloop
  endfacet
  facet normal 0.0784573 -0.996917 0
    outer loop
      vertex 4.71842 1.77784 0
      vertex 5 1.8 3
      vertex 4.71842 1.77784 3
    endloop
  endfacet
  facet normal 0.0784573 -0.996917 0
    outer loop
      vertex 5 1.8 3
      vertex 4.71842 1.77784 0
      vertex 5 1.8 0
    endloop
  endfacet
  facet normal -0.760406 0.649448 0
    outer loop
      vertex 6.27279 -1.27279 0
      vertex 6.45623 -1.05801 3
      vertex 6.45623 -1.05801 0
    endloop
  endfacet
  facet normal -0.760406 0.649448 0
    outer loop
      vertex 6.45623 -1.05801 3
      vertex 6.27279 -1.27279 0
      vertex 6.27279 -1.27279 3
    endloop
  endfacet
  facet normal -0.649448 -0.760406 0
    outer loop
      vertex 6.05801 1.45623 0
      vertex 6.27279 1.27279 3
      vertex 6.05801 1.45623 3
    endloop
  endfacet
  facet normal -0.649448 -0.760406 -0
    outer loop
      vertex 6.27279 1.27279 3
      vertex 6.05801 1.45623 0
      vertex 6.27279 1.27279 0
    endloop
  endfacet
  facet normal 0.649448 -0.760406 0
    outer loop
      vertex 3.72721 1.27279 0
      vertex 3.94199 1.45623 3
      vertex 3.72721 1.27279 3
    endloop
  endfacet
  facet normal 0.649448 -0.760406 0
    outer loop
      vertex 3.94199 1.45623 3
      vertex 3.72721 1.27279 0
      vertex 3.94199 1.45623 0
    endloop
  endfacet
  facet normal 0.382685 -0.923879 0
    outer loop
      vertex 4.18282 1.60381 0
      vertex 4.44377 1.7119 3
      vertex 4.18282 1.60381 3
    endloop
  endfacet
  facet normal 0.382685 -0.923879 0
    outer loop
      vertex 4.44377 1.7119 3
      vertex 4.18282 1.60381 0
      vertex 4.44377 1.7119 0
    endloop
  endfacet
  facet normal -0.85264 -0.522499 0
    outer loop
      vertex 6.60381 0.817183 0
      vertex 6.45623 1.05801 3
      vertex 6.45623 1.05801 0
    endloop
  endfacet
  facet normal -0.85264 -0.522499 0
    outer loop
      vertex 6.45623 1.05801 3
      vertex 6.60381 0.817183 0
      vertex 6.60381 0.817183 3
    endloop
  endfacet
  facet normal -0.97237 -0.233444 0
    outer loop
      vertex 6.77784 0.281582 0
      vertex 6.7119 0.556231 3
      vertex 6.7119 0.556231 0
    endloop
  endfacet
  facet normal -0.97237 -0.233444 0
    outer loop
      vertex 6.7119 0.556231 3
      vertex 6.77784 0.281582 0
      vertex 6.77784 0.281582 3
    endloop
  endfacet
  facet normal -0.760406 -0.649448 0
    outer loop
      vertex 6.45623 1.05801 0
      vertex 6.27279 1.27279 3
      vertex 6.27279 1.27279 0
    endloop
  endfacet
  facet normal -0.760406 -0.649448 0
    outer loop
      vertex 6.27279 1.27279 3
      vertex 6.45623 1.05801 0
      vertex 6.45623 1.05801 3
    endloop
  endfacet
  facet normal -0.382685 -0.923879 0
    outer loop
      vertex 5.55623 1.7119 0
      vertex 5.81718 1.60381 3
      vertex 5.55623 1.7119 3
    endloop
  endfacet
  facet normal -0.382685 -0.923879 -0
    outer loop
      vertex 5.81718 1.60381 3
      vertex 5.55623 1.7119 0
      vertex 5.81718 1.60381 0
    endloop
  endfacet
  facet normal -0.233444 -0.97237 0
    outer loop
      vertex 5.28158 1.77784 0
      vertex 5.55623 1.7119 3
      vertex 5.28158 1.77784 3
    endloop
  endfacet
  facet normal -0.233444 -0.97237 -0
    outer loop
      vertex 5.55623 1.7119 3
      vertex 5.28158 1.77784 0
      vertex 5.55623 1.7119 0
    endloop
  endfacet
  facet normal -0.522499 -0.85264 0
    outer loop
      vertex 5.81718 1.60381 0
      vertex 6.05801 1.45623 3
      vertex 5.81718 1.60381 3
    endloop
  endfacet
  facet normal -0.522499 -0.85264 -0
    outer loop
      vertex 6.05801 1.45623 3
      vertex 5.81718 1.60381 0
      vertex 6.05801 1.45623 0
    endloop
  endfacet
  facet normal 0.85264 -0.522499 0
    outer loop
      vertex 3.39619 0.817183 3
      vertex 3.54377 1.05801 0
      vertex 3.54377 1.05801 3
    endloop
  endfacet
  facet normal 0.85264 -0.522499 0
    outer loop
      vertex 3.54377 1.05801 0
      vertex 3.39619 0.817183 3
      vertex 3.39619 0.817183 0
    endloop
  endfacet
  facet normal 0.760406 -0.649448 0
    outer loop
      vertex 3.54377 1.05801 3
      vertex 3.72721 1.27279 0
      vertex 3.72721 1.27279 3
    endloop
  endfacet
  facet normal 0.760406 -0.649448 0
    outer loop
      vertex 3.72721 1.27279 0
      vertex 3.54377 1.05801 3
      vertex 3.54377 1.05801 0
    endloop
  endfacet
  facet normal 0.97237 -0.233444 0
    outer loop
      vertex 3.22216 0.281582 3
      vertex 3.2881 0.556231 0
      vertex 3.2881 0.556231 3
    endloop
  endfacet
  facet normal 0.97237 -0.233444 0
    outer loop
      vertex 3.2881 0.556231 0
      vertex 3.22216 0.281582 3
      vertex 3.22216 0.281582 0
    endloop
  endfacet
  facet normal 0.522499 -0.85264 0
    outer loop
      vertex 3.94199 1.45623 0
      vertex 4.18282 1.60381 3
      vertex 3.94199 1.45623 3
    endloop
  endfacet
  facet normal 0.522499 -0.85264 0
    outer loop
      vertex 4.18282 1.60381 3
      vertex 3.94199 1.45623 0
      vertex 4.18282 1.60381 0
    endloop
  endfacet
  facet normal 0.233444 -0.97237 0
    outer loop
      vertex 4.44377 1.7119 0
      vertex 4.71842 1.77784 3
      vertex 4.44377 1.7119 3
    endloop
  endfacet
  facet normal 0.233444 -0.97237 0
    outer loop
      vertex 4.71842 1.77784 3
      vertex 4.44377 1.7119 0
      vertex 4.71842 1.77784 0
    endloop
  endfacet
  facet normal 0.233444 0.97237 -0
    outer loop
      vertex 4.71842 -1.77784 0
      vertex 4.44377 -1.7119 3
      vertex 4.71842 -1.77784 3
    endloop
  endfacet
  facet normal 0.233444 0.97237 0
    outer loop
      vertex 4.44377 -1.7119 3
      vertex 4.71842 -1.77784 0
      vertex 4.44377 -1.7119 0
    endloop
  endfacet
  facet normal -0.233444 0.97237 0
    outer loop
      vertex 5.55623 -1.7119 0
      vertex 5.28158 -1.77784 3
      vertex 5.55623 -1.7119 3
    endloop
  endfacet
  facet normal -0.233444 0.97237 0
    outer loop
      vertex 5.28158 -1.77784 3
      vertex 5.55623 -1.7119 0
      vertex 5.28158 -1.77784 0
    endloop
  endfacet
  facet normal -0.923879 -0.382685 0
    outer loop
      vertex 6.7119 0.556231 0
      vertex 6.60381 0.817183 3
      vertex 6.60381 0.817183 0
    endloop
  endfacet
  facet normal -0.923879 -0.382685 0
    outer loop
      vertex 6.60381 0.817183 3
      vertex 6.7119 0.556231 0
      vertex 6.7119 0.556231 3
    endloop
  endfacet
  facet normal -0.0784575 -0.996917 0
    outer loop
      vertex 5 1.8 0
      vertex 5.28158 1.77784 3
      vertex 5 1.8 3
    endloop
  endfacet
  facet normal -0.0784575 -0.996917 -0
    outer loop
      vertex 5.28158 1.77784 3
      vertex 5 1.8 0
      vertex 5.28158 1.77784 0
    endloop
  endfacet
  facet normal 0.923879 -0.382685 0
    outer loop
      vertex 3.2881 0.556231 3
      vertex 3.39619 0.817183 0
      vertex 3.39619 0.817183 3
    endloop
  endfacet
  facet normal 0.923879 -0.382685 0
    outer loop
      vertex 3.39619 0.817183 0
      vertex 3.2881 0.556231 3
      vertex 3.2881 0.556231 0
    endloop
  endfacet
  facet normal -0.996917 0.0784575 0
    outer loop
      vertex 6.77784 -0.281582 0
      vertex 6.8 0 3
      vertex 6.8 0 0
    endloop
  endfacet
  facet normal -0.996917 0.0784575 0
    outer loop
      vertex 6.8 0 3
      vertex 6.77784 -0.281582 0
      vertex 6.77784 -0.281582 3
    endloop
  endfacet
  facet normal 0.382685 0.923879 -0
    outer loop
      vertex 4.44377 -1.7119 0
      vertex 4.18282 -1.60381 3
      vertex 4.44377 -1.7119 3
    endloop
  endfacet
  facet normal 0.382685 0.923879 0
    outer loop
      vertex 4.18282 -1.60381 3
      vertex 4.44377 -1.7119 0
      vertex 4.18282 -1.60381 0
    endloop
  endfacet
  facet normal 0.996917 0.0784575 0
    outer loop
      vertex 3.22216 -0.281582 3
      vertex 3.2 0 0
      vertex 3.2 0 3
    endloop
  endfacet
  facet normal 0.996917 0.0784575 0
    outer loop
      vertex 3.2 0 0
      vertex 3.22216 -0.281582 3
      vertex 3.22216 -0.281582 0
    endloop
  endfacet
  facet normal 0.97237 0.233444 0
    outer loop
      vertex 3.2881 -0.556231 3
      vertex 3.22216 -0.281582 0
      vertex 3.22216 -0.281582 3
    endloop
  endfacet
  facet normal 0.97237 0.233444 0
    outer loop
      vertex 3.22216 -0.281582 0
      vertex 3.2881 -0.556231 3
      vertex 3.2881 -0.556231 0
    endloop
  endfacet
  facet normal -0.649448 0.760406 0
    outer loop
      vertex 6.27279 -1.27279 0
      vertex 6.05801 -1.45623 3
      vertex 6.27279 -1.27279 3
    endloop
  endfacet
  facet normal -0.649448 0.760406 0
    outer loop
      vertex 6.05801 -1.45623 3
      vertex 6.27279 -1.27279 0
      vertex 6.05801 -1.45623 0
    endloop
  endfacet
  facet normal -0.522499 0.85264 0
    outer loop
      vertex 6.05801 -1.45623 0
      vertex 5.81718 -1.60381 3
      vertex 6.05801 -1.45623 3
    endloop
  endfacet
  facet normal -0.522499 0.85264 0
    outer loop
      vertex 5.81718 -1.60381 3
      vertex 6.05801 -1.45623 0
      vertex 5.81718 -1.60381 0
    endloop
  endfacet
  facet normal -0.382685 0.923879 0
    outer loop
      vertex 5.81718 -1.60381 0
      vertex 5.55623 -1.7119 3
      vertex 5.81718 -1.60381 3
    endloop
  endfacet
  facet normal -0.382685 0.923879 0
    outer loop
      vertex 5.55623 -1.7119 3
      vertex 5.81718 -1.60381 0
      vertex 5.55623 -1.7119 0
    endloop
  endfacet
  facet normal -0.923879 0.382685 0
    outer loop
      vertex 6.60381 -0.817183 0
      vertex 6.7119 -0.556231 3
      vertex 6.7119 -0.556231 0
    endloop
  endfacet
  facet normal -0.923879 0.382685 0
    outer loop
      vertex 6.7119 -0.556231 3
      vertex 6.60381 -0.817183 0
      vertex 6.60381 -0.817183 3
    endloop
  endfacet
  facet normal -0.97237 0.233444 0
    outer loop
      vertex 6.7119 -0.556231 0
      vertex 6.77784 -0.281582 3
      vertex 6.77784 -0.281582 0
    endloop
  endfacet
  facet normal -0.97237 0.233444 0
    outer loop
      vertex 6.77784 -0.281582 3
      vertex 6.7119 -0.556231 0
      vertex 6.7119 -0.556231 3
    endloop
  endfacet
  facet normal 0.0784573 0.996917 -0
    outer loop
      vertex 5 -1.8 0
      vertex 4.71842 -1.77784 3
      vertex 5 -1.8 3
    endloop
  endfacet
  facet normal 0.0784573 0.996917 0
    outer loop
      vertex 4.71842 -1.77784 3
      vertex 5 -1.8 0
      vertex 4.71842 -1.77784 0
    endloop
  endfacet
  facet normal 0.649448 0.760406 -0
    outer loop
      vertex 3.94199 -1.45623 0
      vertex 3.72721 -1.27279 3
      vertex 3.94199 -1.45623 3
    endloop
  endfacet
  facet normal 0.649448 0.760406 0
    outer loop
      vertex 3.72721 -1.27279 3
      vertex 3.94199 -1.45623 0
      vertex 3.72721 -1.27279 0
    endloop
  endfacet
  facet normal 0.760406 0.649448 0
    outer loop
      vertex 3.72721 -1.27279 3
      vertex 3.54377 -1.05801 0
      vertex 3.54377 -1.05801 3
    endloop
  endfacet
  facet normal 0.760406 0.649448 0
    outer loop
      vertex 3.54377 -1.05801 0
      vertex 3.72721 -1.27279 3
      vertex 3.72721 -1.27279 0
    endloop
  endfacet
  facet normal -0.0784575 0.996917 0
    outer loop
      vertex 5.28158 -1.77784 0
      vertex 5 -1.8 3
      vertex 5.28158 -1.77784 3
    endloop
  endfacet
  facet normal -0.0784575 0.996917 0
    outer loop
      vertex 5 -1.8 3
      vertex 5.28158 -1.77784 0
      vertex 5 -1.8 0
    endloop
  endfacet
  facet normal 0.522499 0.85264 -0
    outer loop
      vertex 4.18282 -1.60381 0
      vertex 3.94199 -1.45623 3
      vertex 4.18282 -1.60381 3
    endloop
  endfacet
  facet normal 0.522499 0.85264 0
    outer loop
      vertex 3.94199 -1.45623 3
      vertex 4.18282 -1.60381 0
      vertex 3.94199 -1.45623 0
    endloop
  endfacet
  facet normal 0.85264 0.522499 0
    outer loop
      vertex 3.54377 -1.05801 3
      vertex 3.39619 -0.817183 0
      vertex 3.39619 -0.817183 3
    endloop
  endfacet
  facet normal 0.85264 0.522499 0
    outer loop
      vertex 3.39619 -0.817183 0
      vertex 3.54377 -1.05801 3
      vertex 3.54377 -1.05801 0
    endloop
  endfacet
  facet normal 0.923879 0.382685 0
    outer loop
      vertex 3.39619 -0.817183 3
      vertex 3.2881 -0.556231 0
      vertex 3.2881 -0.556231 3
    endloop
  endfacet
  facet normal 0.923879 0.382685 0
    outer loop
      vertex 3.2881 -0.556231 0
      vertex 3.39619 -0.817183 3
      vertex 3.39619 -0.817183 0
    endloop
  endfacet
  facet normal -0.85264 0.522499 0
    outer loop
      vertex 6.45623 -1.05801 0
      vertex 6.60381 -0.817183 3
      vertex 6.60381 -0.817183 0
    endloop
  endfacet
  facet normal -0.85264 0.522499 0
    outer loop
      vertex 6.60381 -0.817183 3
      vertex 6.45623 -1.05801 0
      vertex 6.45623 -1.05801 3
    endloop
  endfacet
  facet normal -0.996918 -0.0784565 0
    outer loop
      vertex 6.8 121.92 0
      vertex 6.77784 122.202 3
      vertex 6.77784 122.202 0
    endloop
  endfacet
  facet normal -0.996918 -0.0784565 0
    outer loop
      vertex 6.77784 122.202 3
      vertex 6.8 121.92 0
      vertex 6.8 121.92 3
    endloop
  endfacet
  facet normal 0.996918 -0.0784565 0
    outer loop
      vertex 3.2 121.92 3
      vertex 3.22216 122.202 0
      vertex 3.22216 122.202 3
    endloop
  endfacet
  facet normal 0.996918 -0.0784565 0
    outer loop
      vertex 3.22216 122.202 0
      vertex 3.2 121.92 3
      vertex 3.2 121.92 0
    endloop
  endfacet
  facet normal 0.0784673 -0.996917 0
    outer loop
      vertex 4.71842 123.698 0
      vertex 5 123.72 3
      vertex 4.71842 123.698 3
    endloop
  endfacet
  facet normal 0.0784673 -0.996917 0
    outer loop
      vertex 5 123.72 3
      vertex 4.71842 123.698 0
      vertex 5 123.72 0
    endloop
  endfacet
  facet normal -0.760401 0.649454 0
    outer loop
      vertex 6.27279 120.647 0
      vertex 6.45623 120.862 3
      vertex 6.45623 120.862 0
    endloop
  endfacet
  facet normal -0.760401 0.649454 0
    outer loop
      vertex 6.45623 120.862 3
      vertex 6.27279 120.647 0
      vertex 6.27279 120.647 3
    endloop
  endfacet
  facet normal -0.649438 -0.760415 0
    outer loop
      vertex 6.05801 123.376 0
      vertex 6.27279 123.193 3
      vertex 6.05801 123.376 3
    endloop
  endfacet
  facet normal -0.649438 -0.760415 -0
    outer loop
      vertex 6.27279 123.193 3
      vertex 6.05801 123.376 0
      vertex 6.27279 123.193 0
    endloop
  endfacet
  facet normal 0.649438 -0.760415 0
    outer loop
      vertex 3.72721 123.193 0
      vertex 3.94199 123.376 3
      vertex 3.72721 123.193 3
    endloop
  endfacet
  facet normal 0.649438 -0.760415 0
    outer loop
      vertex 3.94199 123.376 3
      vertex 3.72721 123.193 0
      vertex 3.94199 123.376 0
    endloop
  endfacet
  facet normal 0.382671 -0.923885 0
    outer loop
      vertex 4.18282 123.524 0
      vertex 4.44377 123.632 3
      vertex 4.18282 123.524 3
    endloop
  endfacet
  facet normal 0.382671 -0.923885 0
    outer loop
      vertex 4.44377 123.632 3
      vertex 4.18282 123.524 0
      vertex 4.44377 123.632 0
    endloop
  endfacet
  facet normal -0.852639 -0.5225 0
    outer loop
      vertex 6.60381 122.737 0
      vertex 6.45623 122.978 3
      vertex 6.45623 122.978 0
    endloop
  endfacet
  facet normal -0.852639 -0.5225 0
    outer loop
      vertex 6.45623 122.978 3
      vertex 6.60381 122.737 0
      vertex 6.60381 122.737 3
    endloop
  endfacet
  facet normal -0.972369 -0.233449 0
    outer loop
      vertex 6.77784 122.202 0
      vertex 6.7119 122.476 3
      vertex 6.7119 122.476 0
    endloop
  endfacet
  facet normal -0.972369 -0.233449 0
    outer loop
      vertex 6.7119 122.476 3
      vertex 6.77784 122.202 0
      vertex 6.77784 122.202 3
    endloop
  endfacet
  facet normal -0.760412 -0.649441 0
    outer loop
      vertex 6.45623 122.978 0
      vertex 6.27279 123.193 3
      vertex 6.27279 123.193 0
    endloop
  endfacet
  facet normal -0.760412 -0.649441 0
    outer loop
      vertex 6.27279 123.193 3
      vertex 6.45623 122.978 0
      vertex 6.45623 122.978 3
    endloop
  endfacet
  facet normal -0.233457 -0.972367 0
    outer loop
      vertex 5.28158 123.698 0
      vertex 5.55623 123.632 3
      vertex 5.28158 123.698 3
    endloop
  endfacet
  facet normal -0.233457 -0.972367 -0
    outer loop
      vertex 5.55623 123.632 3
      vertex 5.28158 123.698 0
      vertex 5.55623 123.632 0
    endloop
  endfacet
  facet normal -0.0784676 -0.996917 0
    outer loop
      vertex 5 123.72 0
      vertex 5.28158 123.698 3
      vertex 5 123.72 3
    endloop
  endfacet
  facet normal -0.0784676 -0.996917 -0
    outer loop
      vertex 5.28158 123.698 3
      vertex 5 123.72 0
      vertex 5.28158 123.698 0
    endloop
  endfacet
  facet normal -0.522504 -0.852637 0
    outer loop
      vertex 5.81718 123.524 0
      vertex 6.05801 123.376 3
      vertex 5.81718 123.524 3
    endloop
  endfacet
  facet normal -0.522504 -0.852637 -0
    outer loop
      vertex 6.05801 123.376 3
      vertex 5.81718 123.524 0
      vertex 6.05801 123.376 0
    endloop
  endfacet
  facet normal 0.923881 -0.38268 0
    outer loop
      vertex 3.2881 122.476 3
      vertex 3.39619 122.737 0
      vertex 3.39619 122.737 3
    endloop
  endfacet
  facet normal 0.923881 -0.38268 0
    outer loop
      vertex 3.39619 122.737 0
      vertex 3.2881 122.476 3
      vertex 3.2881 122.476 0
    endloop
  endfacet
  facet normal 0.852639 -0.5225 0
    outer loop
      vertex 3.39619 122.737 3
      vertex 3.54377 122.978 0
      vertex 3.54377 122.978 3
    endloop
  endfacet
  facet normal 0.852639 -0.5225 0
    outer loop
      vertex 3.54377 122.978 0
      vertex 3.39619 122.737 3
      vertex 3.39619 122.737 0
    endloop
  endfacet
  facet normal 0.972369 -0.233449 0
    outer loop
      vertex 3.22216 122.202 3
      vertex 3.2881 122.476 0
      vertex 3.2881 122.476 3
    endloop
  endfacet
  facet normal 0.972369 -0.233449 0
    outer loop
      vertex 3.2881 122.476 0
      vertex 3.22216 122.202 3
      vertex 3.22216 122.202 0
    endloop
  endfacet
  facet normal 0.522504 -0.852637 0
    outer loop
      vertex 3.94199 123.376 0
      vertex 4.18282 123.524 3
      vertex 3.94199 123.376 3
    endloop
  endfacet
  facet normal 0.522504 -0.852637 0
    outer loop
      vertex 4.18282 123.524 3
      vertex 3.94199 123.376 0
      vertex 4.18282 123.524 0
    endloop
  endfacet
  facet normal 0.233457 -0.972367 0
    outer loop
      vertex 4.44377 123.632 0
      vertex 4.71842 123.698 3
      vertex 4.44377 123.632 3
    endloop
  endfacet
  facet normal 0.233457 -0.972367 0
    outer loop
      vertex 4.71842 123.698 3
      vertex 4.44377 123.632 0
      vertex 4.71842 123.698 0
    endloop
  endfacet
  facet normal 0.233457 0.972367 -0
    outer loop
      vertex 4.71842 120.142 0
      vertex 4.44377 120.208 3
      vertex 4.71842 120.142 3
    endloop
  endfacet
  facet normal 0.233457 0.972367 0
    outer loop
      vertex 4.44377 120.208 3
      vertex 4.71842 120.142 0
      vertex 4.44377 120.208 0
    endloop
  endfacet
  facet normal -0.233457 0.972367 0
    outer loop
      vertex 5.55623 120.208 0
      vertex 5.28158 120.142 3
      vertex 5.55623 120.208 3
    endloop
  endfacet
  facet normal -0.233457 0.972367 0
    outer loop
      vertex 5.28158 120.142 3
      vertex 5.55623 120.208 0
      vertex 5.28158 120.142 0
    endloop
  endfacet
  facet normal -0.923881 -0.38268 0
    outer loop
      vertex 6.7119 122.476 0
      vertex 6.60381 122.737 3
      vertex 6.60381 122.737 0
    endloop
  endfacet
  facet normal -0.923881 -0.38268 0
    outer loop
      vertex 6.60381 122.737 3
      vertex 6.7119 122.476 0
      vertex 6.7119 122.476 3
    endloop
  endfacet
  facet normal -0.382671 -0.923885 0
    outer loop
      vertex 5.55623 123.632 0
      vertex 5.81718 123.524 3
      vertex 5.55623 123.632 3
    endloop
  endfacet
  facet normal -0.382671 -0.923885 -0
    outer loop
      vertex 5.81718 123.524 3
      vertex 5.55623 123.632 0
      vertex 5.81718 123.524 0
    endloop
  endfacet
  facet normal 0.760412 -0.649441 0
    outer loop
      vertex 3.54377 122.978 3
      vertex 3.72721 123.193 0
      vertex 3.72721 123.193 3
    endloop
  endfacet
  facet normal 0.760412 -0.649441 0
    outer loop
      vertex 3.72721 123.193 0
      vertex 3.54377 122.978 3
      vertex 3.54377 122.978 0
    endloop
  endfacet
  facet normal -0.996917 0.0784586 0
    outer loop
      vertex 6.77784 121.638 0
      vertex 6.8 121.92 3
      vertex 6.8 121.92 0
    endloop
  endfacet
  facet normal -0.996917 0.0784586 0
    outer loop
      vertex 6.8 121.92 3
      vertex 6.77784 121.638 0
      vertex 6.77784 121.638 3
    endloop
  endfacet
  facet normal 0.996917 0.0784586 0
    outer loop
      vertex 3.22216 121.638 3
      vertex 3.2 121.92 0
      vertex 3.2 121.92 3
    endloop
  endfacet
  facet normal 0.996917 0.0784586 0
    outer loop
      vertex 3.2 121.92 0
      vertex 3.22216 121.638 3
      vertex 3.22216 121.638 0
    endloop
  endfacet
  facet normal 0.972371 0.233443 0
    outer loop
      vertex 3.2881 121.364 3
      vertex 3.22216 121.638 0
      vertex 3.22216 121.638 3
    endloop
  endfacet
  facet normal 0.972371 0.233443 0
    outer loop
      vertex 3.22216 121.638 0
      vertex 3.2881 121.364 3
      vertex 3.2881 121.364 0
    endloop
  endfacet
  facet normal -0.649453 0.760401 0
    outer loop
      vertex 6.27279 120.647 0
      vertex 6.05801 120.464 3
      vertex 6.27279 120.647 3
    endloop
  endfacet
  facet normal -0.649453 0.760401 0
    outer loop
      vertex 6.05801 120.464 3
      vertex 6.27279 120.647 0
      vertex 6.05801 120.464 0
    endloop
  endfacet
  facet normal -0.522504 0.852637 0
    outer loop
      vertex 6.05801 120.464 0
      vertex 5.81718 120.316 3
      vertex 6.05801 120.464 3
    endloop
  endfacet
  facet normal -0.522504 0.852637 0
    outer loop
      vertex 5.81718 120.316 3
      vertex 6.05801 120.464 0
      vertex 5.81718 120.316 0
    endloop
  endfacet
  facet normal -0.382671 0.923885 0
    outer loop
      vertex 5.81718 120.316 0
      vertex 5.55623 120.208 3
      vertex 5.81718 120.316 3
    endloop
  endfacet
  facet normal -0.382671 0.923885 0
    outer loop
      vertex 5.55623 120.208 3
      vertex 5.81718 120.316 0
      vertex 5.55623 120.208 0
    endloop
  endfacet
  facet normal -0.923881 0.38268 0
    outer loop
      vertex 6.60381 121.103 0
      vertex 6.7119 121.364 3
      vertex 6.7119 121.364 0
    endloop
  endfacet
  facet normal -0.923881 0.38268 0
    outer loop
      vertex 6.7119 121.364 3
      vertex 6.60381 121.103 0
      vertex 6.60381 121.103 3
    endloop
  endfacet
  facet normal -0.972371 0.233443 0
    outer loop
      vertex 6.7119 121.364 0
      vertex 6.77784 121.638 3
      vertex 6.77784 121.638 0
    endloop
  endfacet
  facet normal -0.972371 0.233443 0
    outer loop
      vertex 6.77784 121.638 3
      vertex 6.7119 121.364 0
      vertex 6.7119 121.364 3
    endloop
  endfacet
  facet normal 0.0784405 0.996919 -0
    outer loop
      vertex 5 120.12 0
      vertex 4.71842 120.142 3
      vertex 5 120.12 3
    endloop
  endfacet
  facet normal 0.0784405 0.996919 0
    outer loop
      vertex 4.71842 120.142 3
      vertex 5 120.12 0
      vertex 4.71842 120.142 0
    endloop
  endfacet
  facet normal 0.649453 0.760401 -0
    outer loop
      vertex 3.94199 120.464 0
      vertex 3.72721 120.647 3
      vertex 3.94199 120.464 3
    endloop
  endfacet
  facet normal 0.649453 0.760401 0
    outer loop
      vertex 3.72721 120.647 3
      vertex 3.94199 120.464 0
      vertex 3.72721 120.647 0
    endloop
  endfacet
  facet normal 0.760401 0.649454 0
    outer loop
      vertex 3.72721 120.647 3
      vertex 3.54377 120.862 0
      vertex 3.54377 120.862 3
    endloop
  endfacet
  facet normal 0.760401 0.649454 0
    outer loop
      vertex 3.54377 120.862 0
      vertex 3.72721 120.647 3
      vertex 3.72721 120.647 0
    endloop
  endfacet
  facet normal 0.923881 0.38268 0
    outer loop
      vertex 3.39619 121.103 3
      vertex 3.2881 121.364 0
      vertex 3.2881 121.364 3
    endloop
  endfacet
  facet normal 0.923881 0.38268 0
    outer loop
      vertex 3.2881 121.364 0
      vertex 3.39619 121.103 3
      vertex 3.39619 121.103 0
    endloop
  endfacet
  facet normal -0.0784408 0.996919 0
    outer loop
      vertex 5.28158 120.142 0
      vertex 5 120.12 3
      vertex 5.28158 120.142 3
    endloop
  endfacet
  facet normal -0.0784408 0.996919 0
    outer loop
      vertex 5 120.12 3
      vertex 5.28158 120.142 0
      vertex 5 120.12 0
    endloop
  endfacet
  facet normal 0.522504 0.852637 -0
    outer loop
      vertex 4.18282 120.316 0
      vertex 3.94199 120.464 3
      vertex 4.18282 120.316 3
    endloop
  endfacet
  facet normal 0.522504 0.852637 0
    outer loop
      vertex 3.94199 120.464 3
      vertex 4.18282 120.316 0
      vertex 3.94199 120.464 0
    endloop
  endfacet
  facet normal 0.852639 0.5225 0
    outer loop
      vertex 3.54377 120.862 3
      vertex 3.39619 121.103 0
      vertex 3.39619 121.103 3
    endloop
  endfacet
  facet normal 0.852639 0.5225 0
    outer loop
      vertex 3.39619 121.103 0
      vertex 3.54377 120.862 3
      vertex 3.54377 120.862 0
    endloop
  endfacet
  facet normal -0.852639 0.5225 0
    outer loop
      vertex 6.45623 120.862 0
      vertex 6.60381 121.103 3
      vertex 6.60381 121.103 0
    endloop
  endfacet
  facet normal -0.852639 0.5225 0
    outer loop
      vertex 6.60381 121.103 3
      vertex 6.45623 120.862 0
      vertex 6.45623 120.862 3
    endloop
  endfacet
  facet normal 0.382671 0.923885 -0
    outer loop
      vertex 4.44377 120.208 0
      vertex 4.18282 120.316 3
      vertex 4.44377 120.208 3
    endloop
  endfacet
  facet normal 0.382671 0.923885 0
    outer loop
      vertex 4.18282 120.316 3
      vertex 4.44377 120.208 0
      vertex 4.18282 120.316 0
    endloop
  endfacet
endsolid OpenSCAD_Model
